<svg xmlns="http://www.w3.org/2000/svg" width="1600" height="1000" viewBox="0 0 1600 1000">
  <defs>
    <linearGradient id="g" x1="0" y1="0" x2="1" y2="1">
      <stop offset="0%" stop-color="#ffffff"/>
      <stop offset="50%" stop-color="#eff6ff"/>
      <stop offset="100%" stop-color="#dbeafe"/>
    </linearGradient>
    <radialGradient id="r1" cx="20%" cy="20%" r="45%">
      <stop offset="0%" stop-color="#60a5fa" stop-opacity="0.38"/>
      <stop offset="100%" stop-color="#60a5fa" stop-opacity="0"/>
    </radialGradient>
    <radialGradient id="r2" cx="85%" cy="18%" r="38%">
      <stop offset="0%" stop-color="#2563eb" stop-opacity="0.28"/>
      <stop offset="100%" stop-color="#2563eb" stop-opacity="0"/>
    </radialGradient>
    <radialGradient id="r3" cx="75%" cy="85%" r="42%">
      <stop offset="0%" stop-color="#93c5fd" stop-opacity="0.34"/>
      <stop offset="100%" stop-color="#93c5fd" stop-opacity="0"/>
    </radialGradient>
  </defs>
  <rect width="1600" height="1000" fill="url(#g)"/>
  <rect width="1600" height="1000" fill="url(#r1)"/>
  <rect width="1600" height="1000" fill="url(#r2)"/>
  <rect width="1600" height="1000" fill="url(#r3)"/>
  <g opacity="0.23" stroke="#2563eb" stroke-width="1">
    <path d="M-100 220 C200 120, 380 360, 650 240 S1120 120, 1700 250" fill="none"/>
    <path d="M-100 520 C220 390, 420 640, 720 490 S1160 360, 1700 520" fill="none"/>
    <path d="M-100 820 C250 680, 430 900, 760 760 S1190 640, 1700 800" fill="none"/>
  </g>
  <g opacity="0.16" fill="#1d4ed8">
    <circle cx="220" cy="210" r="10"/>
    <circle cx="370" cy="330" r="6"/>
    <circle cx="1110" cy="190" r="8"/>
    <circle cx="1260" cy="410" r="5"/>
    <circle cx="1010" cy="720" r="9"/>
    <circle cx="520" cy="760" r="7"/>
  </g>
</svg>